<mxfile host="65bd71144e">
    <diagram id="AwUxnp_n2t7j9ZrYzM63" name="Page-1">
        <mxGraphModel dx="1572" dy="539" grid="1" gridSize="10" guides="1" tooltips="1" connect="1" arrows="1" fold="1" page="1" pageScale="1" pageWidth="827" pageHeight="1169" math="0" shadow="0">
            <root>
                <mxCell id="0"/>
                <mxCell id="1" parent="0"/>
                <mxCell id="7" value="" style="edgeStyle=none;html=1;" edge="1" parent="1" source="2" target="4">
                    <mxGeometry relative="1" as="geometry"/>
                </mxCell>
                <mxCell id="8" value="" style="edgeStyle=none;html=1;" edge="1" parent="1" source="2" target="5">
                    <mxGeometry relative="1" as="geometry"/>
                </mxCell>
                <mxCell id="9" value="" style="edgeStyle=none;html=1;" edge="1" parent="1" source="2" target="5">
                    <mxGeometry relative="1" as="geometry"/>
                </mxCell>
                <mxCell id="18" value="" style="edgeStyle=none;html=1;fontColor=#FFFFFF;" edge="1" parent="1" source="2" target="5">
                    <mxGeometry relative="1" as="geometry"/>
                </mxCell>
                <mxCell id="2" value="NestJS" style="shape=image;verticalLabelPosition=bottom;labelBackgroundColor=default;verticalAlign=middle;aspect=fixed;imageAspect=0;image=data:image/png,iVBORw0KGgoAAAANSUhEUgAAAOEAAADgCAMAAADCMfHtAAAAllBMVEX////gI07eADzeADreAD/eADvgIEzeAEDeADjgHErfFUffEEXfCkP2zNP//f71xs753uP99PbtlqX87O/riJniO17qfpH30dfxsLv++Pnytb/kTGrskKD64+fzusP42N7unqvhL1bwqbXlWnXnZHzjQmPocIbnaIDmXnjkUG3iNFntlaToboT0wMnqgZPdADLdACncAB89XKuQAAAOlElEQVR4nN1daWOrKhOOqAhoVrM2m1nbpknPff//n3tdEwWMGBRNny/nnN6mlykw88zCTKfTMG6rwwXuDqtu0wupDQNia5qGiUH2TS+lLix2WAsArYnb9FpqwtCBoYgaNvvJ1xajPyVt34wk1CDaxF9y/6HDX7qZBxyLqKFZ9JU18Hd0OWh2WRViBhIJIYm/YgSnFh2HzS6sOuxgIqLjhV8Y2eG/CJg3u7DKMCaJhHgSfmGSnFtw+BvbuLESCTXU8/89MO//Jla/8ONvgPDaxRIG/z7eVU+gYKdNL68CbO8Shvbi9tjC8G7+ASqQ7CFEH50UBbhfTrBteoWy2DjRncOBJL0J1ihA/d1FjHSpcVj4f19MCC2gL6KxbnqNctCCY4m84K9dwuxgeFDJW1uNwFhAPbAKw08d8gT0Rbw0vUoZ+FsIQUBC5ybnhMawz00v83VsfE2KAlVyBLny+TA/ml7oy1hiDXwEOtR+JqDP4N71Kq6RRo7+n6f8Exoh/K53xNzRkE9afp0CATVNf1On+JcQn3nOUKGAb6tPP7Hhe/YnrhmkYGyKf1wLcSSWz73NYvl8o/mem3h2Dmkf+ClA0zdxOOjPvfH5uJxo2PFBtMvycB578+56kfshD4zTcYynwF8KpcliffOmS0cHli8WwRjCcMX+HxgTYjsG0J3l1OvzHL3uP68zFNAzIVATNtG9rb5NXzQ+ZU79/oljmcZh1KW3E+0726dsJgVHdex/uJlqumWL6MFETttAp1U/LeXKS4cxCj6+VCrf9hNZROwCUVJaaDm6O7WLsbiESo/pbamLKcAcKYHmxdeyG8S4BWHdVMn3oRklziYX0EFf8Xp7uuiHyFiNfHNovXA6WWDDXoXxCSFKE35CyUXcaNXIFwDa+vKj1/GKeXcMo375tiejMvlCYAtMb8ISmrUHT6dI9v5xQIQF1IyaA4tbrcARrx01K9M9qvaAvgCn1oTbVdhs1SihV6OA3+K3pT7Y9UnYKwwVKUF9Ei4urRCwPu+ix0uYNAGnrsBwO46oDzrrXVVS6rstAmqAqrK5VFN1c2jazj+gUw4iNqqgccc2mIkISU1Rgp6JsbxT/NUeATV8yK4tqA+bSMrXW7bniPrmcJRdXd/yvyaXsllrrVEyAQwqJuwFv35jJSHgBtTgLEkgrJlK4StcHnq5cKp3FconqAMT9I6DdOBFhbqxW3VCfVgUo0nCkK9pm+0SNO4N0tCpQ/qTaEHnt7R83W+9XTcwAKGr+LT7HpS8isP9rmUaJgKiKNqjuliDTn56i8Zgf0B08Vw7gL+ppZ5TekKwkMHdTAlw2rh9AfQZddQySTlQlAMfeJ8Tx3wp1aIINGPrjDNsCxpPCerthBzc1r2LgShfcEgZa/L55HAuW6lYsnDopMwvba31XH06ewP5NIipVa+Z1DiEOQL2m4/zCgDRdRicfJXDp+Bb0TKBRmHRi/csznchLj/V3mEHCa1H2TMagFuOMm6RB58LvKMIaWfHVx2c6j73Hc4oG4s55ng9HCeDUbktBMb09VrxLmEIg4kYV5ewrg1Yo3fQy3fMGYvRFa5kaQz2hPYa9s9ulkUlNrw2BdK4AAwX+3lamwLt7HefW85mMGJyvteCY0flUA/tltCa0JmXxbLIulGbuFOwzJdhG0yysCtQJphNMU7aq0ptfUyrmN5UhEJn1em5peYQO8aKcWg/HDG9aKW9/X4LyisYYAct5zRN63SFi7GyxGbZLlWDiWOAw551ETaTEk4sSAd0XLNFN5GQ09mbMbvXWf8Qq8xO4IwNHZT6bL1YcVLWi+7qotsltyHrJ7q71mgbYoDleN4duME2Ltxtfz+d6EZZ8TQ2zfidy9TVIyjpB6YOANBNo/gFQA6YoM4ItWYbK4JBh92G0z8mImZjp220izJgny20nIKXBluHun+HgFQJsEX9vT93TBleJP4g4D3AKdN8i8iwOJh06rtE98XBeQS2+df0oioFr9b21sLyi9dBrqyEnfWl4hc/jcLiSNjpzDXwZ/hbXvOlbkRRmb0MHy1HwPgtdjr34UJYAIAfQTiIbcswDW15PE/H4/Hv9Ho4YRMYr3o2ysDUbtwvIwikit/LYQtp19FmyxAEdzYff1vAaXF1igZyJBz4EoLbLfSK8an7tEhlPT8TUOYtt1LkveTzJSTHmIkjgdd+A++EXgg0KEDe+5o1gGQR0VTRmkbX27VRBZOc3lKuHuxc0GATamICBtie27eRuev/L3imubLFzugDw5HTtpLGp/0JfAmN0ZP/zsXebpcLZsyeLHZk23nm5Bk8o0338elTvj167SnKopbH3i+CPNOUg082fSCGwak1AWaOF1wN9m3xwuh3YNXBPbVE4yDx8vayWLWjohPU2Pe024qknVVnc7DhpQXFSE69Pey+mtepds2ds6aNx9GJzMtEEYyEuyPVJWHt7c69hqPMmBdRrBZPCyUVSPgKty4Jr9G7CFU0zho3WaMLTwok7FybZHBqOp42WlimRMJFgyHynRIJG81MqpGws29M2yjaQ5+iNhS9gbJdQYSxaCiWqsQeRrg1036itkANB5+NnFOssBf/sBFlg1VOxdg34Q+ralkbQbAreaWosQchB008fKitfx0fDfBTxVPbZuothqF4SqT6TaT719WNrvKb6KgVsNO5KFanitvwd8KpOUpRfzCRRk8xsVE+LEL56/+nefx6IDyqoxpUMCuit96uS/2UPOoG69BBUNbDd1cTHRgA7cbih2HET7nBZR1qVlLRDM8oLtmDBAk7mgP+MSXTOh5eybHSW6aQzRH2w/hvHpz9voZ8qimT46aTSrroB/na1Jh1q3cfc9tGvSKgOAG8cSVBC/FRM8KQuYZdJsRrin6UO7wKTzq96qPGMoMimNLnIgLofmySOkd23K/vio85P1MaEsU0K4ZeFs1kOAILOL9hsTjvIgbdgYWH6YhCIpLIPuTLudP38vewGZVvVIJCug8O+w7G48g/8aR+gAQpZT2EnIDPPdCVGDtbc3kWMaxWvsoaREz12uH3bhPCF/Pb5hfF91D8l0c/MWy5HbY+I3x4Ld2DxJpl1LSMb8i6QCa3UrP/X/zl1OKxxrrBMPTEZUkNnGQnf0kMpOFYLr6E17gdZyZ96PwwjZvscRUS+tYvo4711zUppz0Yd8zUUI8P7yUjEmGUafSLkD2lvmJJXx/u2zxBbFhWwrWtnhO1iKdsCzxRpzSuefmU1KVgm+lJKzOylKPuuQ0ZCQzjsSz/oWBGvpestQCZF/dSriFnDzWdVab+/y6Q0C1qe47jkhce1ymB4CSk2LtUhKbPkRCyYzRsGFCVYWFzYjM+TpKsLTDJKR0IZMqfuU4s3lEiBrfPGLiFAibcSpZ5Bw9Gh3dzIZdVW/B7o8JMiiBsoGrPi1uDJ23WZb2n0KbetbwEnwnAjyZBlH5EFPHo4voEO/HhJD3g6JlaEkDIe7Qmijzb7MB9cvpHguuFTsIVJDuPRC3aktQP3fm7LHjKNF4v+Jxvh2Kz4EOYd0MqafAjBnOMJJSx9iEWT2qbsWOYwBA9caku6nLRxNggx78m2S2Upx8JILnzWb76EkY8uyQihLK30Ee/ogRL6gUnz8iWgBkpgGgIvaQiDVFNoxfgPX7iSipcmuxa+FNyGrOXw7yK4GYmiizH2ZIpUMHYmdTRl0EFm0jSPrhcV/H7i+ZAQrbd9UvoS5dV4EwFtlxy+B7p8yWsLLEtWzCKdxlqLFelcU8T+vdQ3lLEGMp1OqeIOn8MgCge1mFMKlEzEfoyiyKXrHOTk1UUxGNG0tSusq579Loz4HxT6q5UBpjJKDxe/lz/VTq1+/dVEQHNOUoxCCaSlZqR9F1+NtlTjF86qBAxAYYyKQu4o/ystPKsvEDo9oIGJJg5SLMyh8HsUqMA0mOuKq7TG3ys6MBgIaB+ZRlHGVNBvhIXKUZd7+/c/ZfxQgcl2+YEVkvV85nDTpYc0MPmKsLsf690TcDol0cZLyV+lLGnAmEVeEp8LH5Ldx7G+oFLN8qw+ECrZMMdZn0FpO4UlTHTRP/mlxUtypAjMKTc76LcsxyGK0uwbwK00WeeKS4TnzEDtyFtO6XLugqx+dQLxwlCAuAo1+suQ/7s4M7N0hIiFbWH/d9nIyGxA8jvk2WUefGFww1LBwNsVQWyA+9bD3oMZhYLse0A4+A9V+aHMmc0VFSpcDTElXjzYhh2vemSmCYwQgDT2B3HH4WmalSCkKLQlA5SrjczTa9+9Nz1duZDtOa0zCWMZ2//PA6po7yIuzTKJGOS+ekP3wmreYgug2GJJ94kTqOmqqgrC1fUhgUz3y9f4ntU55EU0tW+2XoBPZqOEnOZN5oJk+Re37ew/ZdwccnYCWzp08Esh6FCKyEM96AjUdLvQgZuuswOO+j7o9cZ5vShhsb9xiWRcQzr61JWDbYPFhTMdoqGH+V4USkBk+d9sM4mZZXgI27mhm0DHOfxEbzyXRXsPKRJvHsldFQGUz2UztJPqwcryaE3GD5IexI3RvW2KJPGemfYls9Yf/pp4rPh0xtySX1TbCrYWF27MPqfdvy50fcoJ/HvpAuZ4/yU7ilc7SvgsvEBvzTMzBi9aAv10o1x2wCX23+YCh1HW4i8htYoBZfbvh47WY0Z1oGzU0nfAfzaN2uZ9cAGKNhViTcizYG7g9kSsgBLrOEGnoRWgDUvyGNrdGjuBjSiVVBFoh4zjhaFiHUcMLTopON7YMNpxuto7GEcO0hpH5bKMGINPUY/7PcN/oG31DGc+dNYP/AumzZ5yyvoTmhvAhoXboDw9z1PaN+glCi0NH7sZaA+LloFxpSOgRZ8S76SB3eSzeRicGl97KwU9pn5CdBGh/c8iHlwl2kdii1n3PawS0mMUhuIHfT1npYuH91dcgMhsdBhrriRU+1Yf+kwks4B9nnT9qhnaQyDCS2Q2JYOr3vFfcZUYDj+pxsAXa6j/ltysCK43mHqfcyUa83/A+HZAZDQGa6XAAAAAElFTkSuQmCC;horizontal=1;align=center;imageBorder=default;" vertex="1" parent="1">
                    <mxGeometry x="50" y="60" width="70.31" height="70" as="geometry"/>
                </mxCell>
                <mxCell id="3" value="PostgreSQL&#10;" style="shape=image;verticalLabelPosition=bottom;labelBackgroundColor=default;verticalAlign=top;aspect=fixed;imageAspect=0;image=data:image/svg+xml,PHN2ZyB4bWxucz0iaHR0cDovL3d3dy53My5vcmcvMjAwMC9zdmciIHByZXNlcnZlQXNwZWN0UmF0aW89InhNaW5ZTWluIG1lZXQiIHZpZXdCb3g9IjAuMjk3MjU0NTYyMzc3OTI5NyAwLjM2NDQ3MDMwMzA1ODYyNDI3IDI1NS4zODY2MTE5Mzg0NzY1NiAyNjMuMjk4NTIyOTQ5MjE4NzUiIGhlaWdodD0iMjQ5My4zNTcyMjQ4OTc5MDUiIHdpZHRoPSIyNDE4LjE5MTk4MTc5MjQ1Ij48cGF0aCBkPSJNMjU1LjAwOCAxNTguMDg2Yy0xLjUzNS00LjY0OS01LjU1Ni03Ljg4Ny0xMC43NTYtOC42NjQtMi40NTItLjM2Ni01LjI2LS4yMS04LjU4My40NzUtNS43OTIgMS4xOTUtMTAuMDg5IDEuNjUtMTMuMjI1IDEuNzM4IDExLjgzNy0xOS45ODUgMjEuNDYyLTQyLjc3NSAyNy4wMDMtNjQuMjI4IDguOTYtMzQuNjg5IDQuMTcyLTUwLjQ5Mi0xLjQyMy01Ny42NEMyMzMuMjE3IDEwLjg0NyAyMTEuNjE0LjY4MyAxODUuNTUyLjM3MmMtMTMuOTAzLS4xNy0yNi4xMDggMi41NzUtMzIuNDc1IDQuNTQ5LTUuOTI4LTEuMDQ2LTEyLjMwMi0xLjYzLTE4Ljk5LTEuNzM4LTEyLjUzNy0uMi0yMy42MTQgMi41MzMtMzMuMDc5IDguMTUtNS4yNC0xLjc3Mi0xMy42NS00LjI3LTIzLjM2Mi01Ljg2NC0yMi44NDItMy43NS00MS4yNTItLjgyOC01NC43MTggOC42ODVDNi42MjIgMjUuNjcyLS45MzcgNDUuNjg0LjQ2MSA3My42MzRjLjQ0NCA4Ljg3NCA1LjQwOCAzNS44NzQgMTMuMjI0IDYxLjQ4IDQuNDkyIDE0LjcxOCA5LjI4MiAyNi45NCAxNC4yMzcgMzYuMzMgNy4wMjcgMTMuMzE1IDE0LjU0NiAyMS4xNTYgMjIuOTg3IDIzLjk3MiA0LjczMSAxLjU3NiAxMy4zMjcgMi42OCAyMi4zNjgtNC44NSAxLjE0NiAxLjM4OCAyLjY3NSAyLjc2NyA0LjcwNCA0LjA0OCAyLjU3NyAxLjYyNSA1LjcyOCAyLjk1MyA4Ljg3NSAzLjc0IDExLjM0MSAyLjgzNSAyMS45NjQgMi4xMjYgMzEuMDI3LTEuODQ4LjA1NiAxLjYxMi4wOTkgMy4xNTIuMTM1IDQuNDgyLjA2IDIuMTU3LjEyIDQuMjcyLjE5OSA2LjI1LjUzNyAxMy4zNzQgMS40NDcgMjMuNzczIDQuMTQzIDMxLjA0OS4xNDguNC4zNDcgMS4wMS41NTcgMS42NTcgMS4zNDUgNC4xMTggMy41OTQgMTEuMDEyIDkuMzE2IDE2LjQxMSA1LjkyNSA1LjU5MyAxMy4wOTIgNy4zMDggMTkuNjU2IDcuMzA4IDMuMjkyIDAgNi40MzMtLjQzMiA5LjE4OC0xLjAyMiA5LjgyLTIuMTA1IDIwLjk3My01LjMxMSAyOS4wNDEtMTYuNzk5IDcuNjI4LTEwLjg2IDExLjMzNi0yNy4yMTcgMTIuMDA3LTUyLjk5LjA4Ny0uNzI5LjE2Ny0xLjQyNS4yNDQtMi4wODhsLjE2LTEuMzYyIDEuNzk3LjE1OC40NjMuMDMxYzEwLjAwMi40NTYgMjIuMjMyLTEuNjY1IDI5Ljc0My01LjE1NCA1LjkzNS0yLjc1NCAyNC45NTQtMTIuNzk1IDIwLjQ3Ni0yNi4zNTEiLz48cGF0aCBmaWxsPSIjMzM2NzkxIiBkPSJNMjM3LjkwNiAxNjAuNzIyYy0yOS43NCA2LjEzNS0zMS43ODUtMy45MzQtMzEuNzg1LTMuOTM0IDMxLjQtNDYuNTkzIDQ0LjUyNy0xMDUuNzM2IDMzLjItMTIwLjIxMS0zMC45MDQtMzkuNDg1LTg0LjM5OS0yMC44MTEtODUuMjkyLTIwLjMyN2wtLjI4Ny4wNTJjLTUuODc2LTEuMjItMTIuNDUxLTEuOTQ2LTE5Ljg0Mi0yLjA2Ny0xMy40NTYtLjIyLTIzLjY2NCAzLjUyOC0zMS40MSA5LjQwMiAwIDAtOTUuNDMtMzkuMzE0LTkwLjk5MSA0OS40NDQuOTQ0IDE4Ljg4MiAyNy4wNjQgMTQyLjg3MyA1OC4yMTggMTA1LjQyMiAxMS4zODctMTMuNjk1IDIyLjM5LTI1LjI3NCAyMi4zOS0yNS4yNzQgNS40NjQgMy42MyAxMi4wMDYgNS40ODIgMTguODY0IDQuODE3bC41MzMtLjQ1MmMtLjE2NiAxLjctLjA5IDMuMzYzLjIxMyA1LjMzMi04LjAyNiA4Ljk2Ny01LjY2NyAxMC41NDEtMjEuNzExIDEzLjg0NC0xNi4yMzUgMy4zNDYtNi42OTggOS4zMDItLjQ3MSAxMC44NiA3LjU0OSAxLjg4NyAyNS4wMTMgNC41NjEgMzYuODEzLTExLjk1OGwtLjQ3IDEuODg1YzMuMTQ0IDIuNTE5IDUuMzUyIDE2LjM4MyA0Ljk4MiAyOC45NTItLjM3IDEyLjU2OC0uNjE3IDIxLjE5NyAxLjg2IDI3LjkzNyAyLjQ3OSA2Ljc0IDQuOTQ4IDIxLjkwNSAyNi4wNCAxNy4zODYgMTcuNjIzLTMuNzc3IDI2Ljc1Ni0xMy41NjQgMjguMDI3LTI5Ljg5LjkwMS0xMS42MDYgMi45NDItOS44OSAzLjA3LTIwLjI2N2wxLjYzNy00LjkxMmMxLjg4Ny0xNS43MzMuMy0yMC44MDkgMTEuMTU3LTE4LjQ0OGwyLjY0LjIzMmM3Ljk5LjM2MyAxOC40NS0xLjI4NiAyNC41ODktNC4xMzkgMTMuMjE4LTYuMTM0IDIxLjA1OC0xNi4zNzcgOC4wMjQtMTMuNjg2aC4wMDIiLz48cGF0aCBmaWxsPSIjRkZGIiBkPSJNMTA4LjA3NiA4MS41MjVjLTIuNjgtLjM3My01LjEwNy0uMDI4LTYuMzM1LjkwMi0uNjkuNTIzLS45MDQgMS4xMjktLjk2MiAxLjU0Ni0uMTU0IDEuMTA1LjYyIDIuMzI3IDEuMDk2IDIuOTU3IDEuMzQ2IDEuNzg0IDMuMzEyIDMuMDEgNS4yNTggMy4yOC4yODIuMDQuNTYzLjA1OC44NDIuMDU4IDMuMjQ1IDAgNi4xOTYtMi41MjcgNi40NTYtNC4zOTIuMzI1LTIuMzM2LTMuMDY2LTMuODkzLTYuMzU1LTQuMzVNMTk2Ljg2IDgxLjU5OWMtLjI1Ni0xLjgzMS0zLjUxNC0yLjM1My02LjYwNi0xLjkyMy0zLjA4OC40My02LjA4MiAxLjgyNC01LjgzMiAzLjY1OS4yIDEuNDI3IDIuNzc3IDMuODYzIDUuODI3IDMuODYzLjI1OCAwIC41MTgtLjAxNy43OC0uMDU0IDIuMDM2LS4yODIgMy41My0xLjU3NSA0LjI0LTIuMzIgMS4wOC0xLjEzNiAxLjcwNi0yLjQwMiAxLjU5MS0zLjIyNSIvPjxwYXRoIGZpbGw9IiNGRkYiIGQ9Ik0yNDcuODAyIDE2MC4wMjVjLTEuMTM0LTMuNDI5LTQuNzg0LTQuNTMyLTEwLjg0OC0zLjI4LTE4LjAwNSAzLjcxNi0yNC40NTMgMS4xNDItMjYuNTctLjQxNyAxMy45OTUtMjEuMzIgMjUuNTA4LTQ3LjA5MiAzMS43MTktNzEuMTM3IDIuOTQyLTExLjM5IDQuNTY3LTIxLjk2OCA0LjctMzAuNTkuMTQ3LTkuNDYzLTEuNDY1LTE2LjQxNy00Ljc4OS0yMC42NjUtMTMuNDAyLTE3LjEyNS0zMy4wNzItMjYuMzExLTU2Ljg4Mi0yNi41NjMtMTYuMzY5LS4xODQtMzAuMTk5IDQuMDA1LTMyLjg4IDUuMTgzLTUuNjQ2LTEuNDA0LTExLjgwMS0yLjI2Ni0xOC41MDItMi4zNzYtMTIuMjg4LS4xOTktMjIuOTEgMi43NDMtMzEuNzA0IDguNzQtMy44Mi0xLjQyMi0xMy42OTItNC44MTEtMjUuNzY1LTYuNzU2LTIwLjg3Mi0zLjM2LTM3LjQ1OC0uODE0LTQ5LjI5NCA3LjU3MS0xNC4xMjMgMTAuMDA2LTIwLjY0MyAyNy44OTItMTkuMzggNTMuMTYuNDI1IDguNTAxIDUuMjY5IDM0LjY1MyAxMi45MTMgNTkuNjk4IDEwLjA2MiAzMi45NjQgMjEgNTEuNjI1IDMyLjUwOCA1NS40NjQgMS4zNDcuNDQ5IDIuOS43NjMgNC42MTMuNzYzIDQuMTk4IDAgOS4zNDUtMS44OTIgMTQuNy04LjMzYTUyOS44MzIgNTI5LjgzMiAwIDAgMSAyMC4yNjEtMjIuOTI2YzQuNTI0IDIuNDI4IDkuNDk0IDMuNzg0IDE0LjU3NyAzLjkyLjAxLjEzMy4wMjMuMjY2LjAzNS4zOThhMTE3LjY2IDExNy42NiAwIDAgMC0yLjU3IDMuMTc1Yy0zLjUyMiA0LjQ3MS00LjI1NSA1LjQwMi0xNS41OTIgNy43MzYtMy4yMjUuNjY2LTExLjc5IDIuNDMxLTExLjkxNiA4LjQzNS0uMTM2IDYuNTYgMTAuMTI1IDkuMzE1IDExLjI5NCA5LjYwNyA0LjA3NCAxLjAyIDcuOTk5IDEuNTIzIDExLjc0MiAxLjUyMyA5LjEwMyAwIDE3LjExNC0yLjk5MiAyMy41MTYtOC43ODEtLjE5NyAyMy4zODYuNzc4IDQ2LjQzIDMuNTg2IDUzLjQ1MSAyLjMgNS43NDggNy45MTggMTkuNzk1IDI1LjY2NCAxOS43OTQgMi42MDQgMCA1LjQ3LS4zMDMgOC42MjMtLjk3OSAxOC41MjEtMy45NyAyNi41NjQtMTIuMTU2IDI5LjY3NS0zMC4yMDMgMS42NjUtOS42NDUgNC41MjItMzIuNjc2IDUuODY2LTQ1LjAzIDIuODM2Ljg4NSA2LjQ4NyAxLjI5IDEwLjQzNCAxLjI4OSA4LjIzMiAwIDE3LjczMS0xLjc0OSAyMy42ODgtNC41MTQgNi42OTItMy4xMDggMTguNzY4LTEwLjczNCAxNi41NzgtMTcuMzZ6bS00NC4xMDYtODMuNDhjLS4wNjEgMy42NDctLjU2MyA2Ljk1OC0xLjA5NSAxMC40MTQtLjU3MyAzLjcxNy0xLjE2NSA3LjU2LTEuMzE0IDEyLjIyNS0uMTQ3IDQuNTQuNDIgOS4yNi45NjggMTMuODI1IDEuMTA4IDkuMjIgMi4yNDUgMTguNzEyLTIuMTU2IDI4LjA3OGEzNi41MDggMzYuNTA4IDAgMCAxLTEuOTUtNC4wMDljLS41NDctMS4zMjYtMS43MzUtMy40NTYtMy4zOC02LjQwNC02LjM5OS0xMS40NzYtMjEuMzg0LTM4LjM1LTEzLjcxMy00OS4zMTYgMi4yODUtMy4yNjQgOC4wODQtNi42MiAyMi42NC00LjgxM3ptLTE3LjY0NC02MS43ODdjMjEuMzM0LjQ3MSAzOC4yMSA4LjQ1MiA1MC4xNTggMjMuNzIgOS4xNjQgMTEuNzExLS45MjcgNjQuOTk4LTMwLjE0IDExMC45NjlhMTcxLjMzIDE3MS4zMyAwIDAgMC0uODg2LTEuMTE3bC0uMzctLjQ2MmM3LjU0OS0xMi40NjcgNi4wNzMtMjQuODAyIDQuNzU5LTM1LjczOC0uNTQtNC40ODgtMS4wNS04LjcyNy0uOTItMTIuNzA5LjEzNC00LjIyLjY5Mi03Ljg0IDEuMjMyLTExLjM0LjY2My00LjMxMyAxLjMzOC04Ljc3NiAxLjE1Mi0xNC4wMzcuMTM5LS41NTIuMTk1LTEuMjA0LjEyMi0xLjk3OC0uNDc1LTUuMDQ1LTYuMjM1LTIwLjE0NC0xNy45NzUtMzMuODEtNi40MjItNy40NzUtMTUuNzg3LTE1Ljg0LTI4LjU3NC0yMS40ODIgNS41LTEuMTQgMTMuMDIxLTIuMjAzIDIxLjQ0Mi0yLjAxNnpNNjYuNjc0IDE3NS43NzhjLTUuOSA3LjA5NC05Ljk3NCA1LjczNC0xMS4zMTQgNS4yODgtOC43My0yLjkxMi0xOC44Ni0yMS4zNjQtMjcuNzkxLTUwLjYyNC03LjcyOC0yNS4zMTgtMTIuMjQ0LTUwLjc3Ny0xMi42MDItNTcuOTE2LTEuMTI4LTIyLjU3OCA0LjM0NS0zOC4zMTMgMTYuMjY4LTQ2Ljc2OSAxOS40MDQtMTMuNzYgNTEuMzA2LTUuNTI0IDY0LjEyNS0xLjM0Ny0uMTg0LjE4Mi0uMzc2LjM1Mi0uNTU4LjUzNy0yMS4wMzYgMjEuMjQ0LTIwLjUzNyA1Ny41NC0yMC40ODUgNTkuNzU5LS4wMDIuODU2LjA3IDIuMDY4LjE2OCAzLjczNS4zNjIgNi4xMDUgMS4wMzYgMTcuNDY3LS43NjQgMzAuMzM0LTEuNjcyIDExLjk1NyAyLjAxNCAyMy42NiAxMC4xMTEgMzIuMTA5YTM2LjI3NSAzNi4yNzUgMCAwIDAgMi42MTcgMi40NjhjLTMuNjA0IDMuODYtMTEuNDM3IDEyLjM5Ni0xOS43NzUgMjIuNDI2em0yMi40NzktMjkuOTkzYy02LjUyNi02LjgxLTkuNDktMTYuMjgyLTguMTMzLTI1Ljk5IDEuOS0xMy41OTIgMS4xOTktMjUuNDMuODIyLTMxLjc5LS4wNTMtLjg5LS4xLTEuNjctLjEyNy0yLjI4NSAzLjA3My0yLjcyNSAxNy4zMTQtMTAuMzU1IDI3LjQ3LTguMDI4IDQuNjM0IDEuMDYxIDcuNDU4IDQuMjE3IDguNjMyIDkuNjQ1IDYuMDc2IDI4LjEwMy44MDQgMzkuODE2LTMuNDMyIDQ5LjIyOS0uODczIDEuOTM5LTEuNjk4IDMuNzcyLTIuNDAyIDUuNjY4bC0uNTQ2IDEuNDY2Yy0xLjM4MiAzLjcwNi0yLjY2OCA3LjE1Mi0zLjQ2NSAxMC40MjQtNi45MzgtLjAyLTEzLjY4Ny0yLjk4NC0xOC44MTktOC4zNHptMS4wNjUgMzcuOWMtMi4wMjYtLjUwNi0zLjg0OC0xLjM4NS00LjkxNy0yLjExNC44OTMtLjQyIDIuNDgyLS45OTIgNS4yMzgtMS41NiAxMy4zMzctMi43NDUgMTUuMzk3LTQuNjgzIDE5Ljg5NS0xMC4zOTQgMS4wMzEtMS4zMSAyLjItMi43OTQgMy44MTktNC42MDJsLjAwMi0uMDAyYzIuNDExLTIuNyAzLjUxNC0yLjI0MiA1LjUxNC0xLjQxMiAxLjYyMS42NyAzLjIgMi43MDIgMy44NCA0LjkzOC4zMDMgMS4wNTYuNjQzIDMuMDYtLjQ3IDQuNjItOS4zOTYgMTMuMTU2LTIzLjA4OCAxMi45ODctMzIuOTIxIDEwLjUyNnptNjkuNzk5IDY0Ljk1MmMtMTYuMzE2IDMuNDk2LTIyLjA5My00LjgyOS0yNS45LTE0LjM0Ni0yLjQ1Ny02LjE0NC0zLjY2NS0zMy44NS0yLjgwOC02NC40NDcuMDExLS40MDctLjA0Ny0uOC0uMTU5LTEuMTdhMTUuNDQ0IDE1LjQ0NCAwIDAgMC0uNDU2LTIuMTYyYy0xLjI3NC00LjQ1Mi00LjM3OS04LjE3Ni04LjEwNC05LjcyLTEuNDgtLjYxMy00LjE5Ni0xLjczOC03LjQ2LS45MDMuNjk2LTIuODY4IDEuOTAzLTYuMTA3IDMuMjEyLTkuNjE0bC41NDktMS40NzVjLjYxOC0xLjY2MyAxLjM5NC0zLjM4NiAyLjIxNC01LjIxIDQuNDMzLTkuODQ4IDEwLjUwNC0yMy4zMzcgMy45MTUtNTMuODEtMi40NjgtMTEuNDE0LTEwLjcxLTE2Ljk4OC0yMy4yMDQtMTUuNjkzLTcuNDkuNzc1LTE0LjM0MyAzLjc5Ny0xNy43NjEgNS41My0uNzM1LjM3Mi0xLjQwNy43MzItMi4wMzUgMS4wODIuOTU0LTExLjUgNC41NTgtMzIuOTkyIDE4LjA0LTQ2LjU5IDguNDg5LTguNTYgMTkuNzk0LTEyLjc4OCAzMy41NjgtMTIuNTYgMjcuMTQuNDQ0IDQ0LjU0NCAxNC4zNzIgNTQuMzY2IDI1Ljk3OSA4LjQ2NCAxMC4wMDEgMTMuMDQ3IDIwLjA3NiAxNC44NzYgMjUuNTEtMTMuNzU1LTEuMzk5LTIzLjExIDEuMzE2LTI3Ljg1MiA4LjA5Ni0xMC4zMTcgMTQuNzQ4IDUuNjQ0IDQzLjM3MiAxMy4zMTUgNTcuMTI5IDEuNDA3IDIuNTIxIDIuNjIxIDQuNyAzLjAwMyA1LjYyNiAyLjQ5OCA2LjA1NCA1LjczMiAxMC4wOTYgOC4wOTMgMTMuMDQ2LjcyNC45MDQgMS40MjYgMS43ODEgMS45NiAyLjU0Ny00LjE2NiAxLjIwMS0xMS42NDkgMy45NzYtMTAuOTY3IDE3Ljg0Ny0uNTUgNi45Ni00LjQ2MSAzOS41NDYtNi40NDggNTEuMDU5LTIuNjIzIDE1LjIxLTguMjIgMjAuODc1LTIzLjk1NyAyNC4yNXptNjguMTA0LTc3LjkzNmMtNC4yNiAxLjk3Ny0xMS4zODkgMy40Ni0xOC4xNjEgMy43NzktNy40OC4zNS0xMS4yODgtLjgzOC0xMi4xODQtMS41NjktLjQyLTguNjQ0IDIuNzk3LTkuNTQ3IDYuMjAyLTEwLjUwMy41MzUtLjE1IDEuMDU3LS4yOTcgMS41NjEtLjQ3My4zMTMuMjU1LjY1Ni41MDggMS4wMzIuNzU2IDYuMDEyIDMuOTY4IDE2LjczNSA0LjM5NiAzMS44NzQgMS4yNzFsLjE2Ni0uMDMzYy0yLjA0MiAxLjkwOS01LjUzNiA0LjQ3MS0xMC40OSA2Ljc3MnoiLz48L3N2Zz4=;" vertex="1" parent="1">
                    <mxGeometry x="370" y="40" width="67.84" height="70" as="geometry"/>
                </mxCell>
                <mxCell id="6" value="" style="edgeStyle=none;html=1;" edge="1" parent="1" source="4" target="3">
                    <mxGeometry relative="1" as="geometry"/>
                </mxCell>
                <mxCell id="4" value="TypeOrm&#10;" style="shape=image;verticalLabelPosition=bottom;labelBackgroundColor=default;verticalAlign=top;aspect=fixed;imageAspect=0;image=data:image/png,iVBORw0KGgoAAAANSUhEUgAAASwAAAEQCAMAAAA9G7mRAAAC/VBMVEVHcEzedzX/rAD/rAD/rAD/qgD/rAD/rAD/rAD/rAD/rAD/rAD/rAD/rAD/rAD/rAD/rAD/rAD/rAD/rAD/rAD/rAD/rAD/rAD/rAD/rAD/rAD/rAD/rAD/rAD/rAD/rAD/rAD/rAD/rAD/rAD/rAD/rAD/rAD/rAD/qgD/rAD/rAD/rAD/rAD/rAD/rACih33/rAD/rAD/rAD/rAD/rAD/rAD+YAD/rAD+AQD+HwD+lgD/rQD/qwD/rAD+AQD+AgD+hAD/rAD/rAD+AgD+AgD+AgD+aQD/qwD+mQD+BAD+AgD+AgD9AQD+TAD+cQD+AgD+AgD+KQD+oQD+UQD+AQD+AQD+AgD+EgD+jgD+pQD+MwD+AQD+AgD+GQD+AgD+AgD+PgD+qAD+egD+BgD+AgD+AgD+AgD+AgD+AgD+AgD+AgD+AgD+AgD+gAD+AgD+AgD+AgD+AgD+AgD+AgD+OQD+AgD+AgD+XwD+AgD+nQD+IQD+AgD+AgD+AgD+AgD+VQD+CwCPkJCPkJCPkJCPkJCPkJD+AgD+cwCPkJCPkJCPkJCPkJCPkJCPkJCPkJCPkJCPkJCPkJCPkJCPkJCPkJCPkJCPkJCPkJCPkJCPkJCPkJCPkJCPkJCPkJCPkJCPkJCPkJD+AgD+AgD+ggCPkJCPkJCPkJCPkJD+BQCPkJCPkJCPkJCPkJCPkJCPkJD9AQCPkJD+AgCPkJD+jgD+AgD+FQD+AgD+AgD+AgD+AgD+AgCPkJCPkJCPkJCPkJCPkJCPkJCPkJD+AgD+AQCPkJCPkJCPkJD+AgD+AgD+AgD+AgD+AgD+AgD+AgD+AgD+AgD+AgD+AgCPkJCPkJCPkJD+AgD+AgCPkJCPkJCPkJCPkJD+AgD+AgD+AgD+AgCPkJD+AgCPkJD+AgCPkJCPkJCPkJCPkJD+AgD+AgCPkJCPkJCPkJCPkJCPkJCPkJCPkJCPkJCPkJCPkJCPkJCPkJCPkJD+RgCPkJD+hwD+AgD+FAD+QwD+GAD/kAD+PgDtB/2sAAAA/3RSTlMAAQ0cMU1he4+isLbAyZMR//ft39OqcDQYCCZzmr3Z5fH7/s31iVwGIVbpBGjDPQJEOQONFc9ObRK8//8JhV74/y0LD7r////MFkPz///4V5L///+iA87/////2iD/T3f/////hwSosgjJ0yPf/+cqOe8+SP/7/f9a///+Ym1w//8VOUxNGIL/e9Dx9fjtfRsruv7/viy3+t7ZuW+BIg0JII6WyY0EhcIKI+kwLefhydYM5smkya4GtsPIBh3IoCflCNYZdoNgHOMlvygy6ew19lMPa6dna3cSell7f4ufoZo8wZqYRdQubGhpNezRrUiyUWpWw5b/Q/8m0ZXN/3gRX3UoAAARmklEQVR4AeTYNaLrMBSE4WMKK54wR5EhpjA85v3v6dGl5kJMha2vmvovh+JTVE03KtVavdFsMcbaKhWCyQCg0+31W4Pa0BiNJ5QvRZ0as/liyVfCsnDHNgsSy8Yjy3J4v+GudVWhfHh+UGvxjgXcdSpqrCciZO3Ajyhr0XQz6Ak8KX6sO6JXDzSFMmQa9btSJYt1R/TdkUcZGW+2DoDSxgKssL7LJJdZYQIocaw73fpoTylFh4UAJIgFi1fHlMrY7cKSIxYgWjuFkju27krJEQvgmwkldAp6gFSx4JxVSiTadCFbLIj5hRI4bVaQLxasuUrxVVaQMRbEeUJxHTjkjIXOhmLyGWSNBb6jWLw5Shfrils1TYrj3Qqvsf59aFe2vV6XvFWQWOq8WZ/Xzud2vbFddoWFl4n3FMOHj58+4wUibLU3hu6PL6Z6GWvTaUSFoHyJlLtxUjU9+LoIX+7V9+l2377/eCFWt7n5qVIZ/NKrLz4Ef7ivBy07oxgKwKlt27Yxxh7mjm3Ubse+fu3L31grdZvvEfY50fktJFZTi7qS+sDT/HYp6fFw84WQ39XQSFJNzRwJPDTvXiFdNjwIas71JS2tJNUGbu/w7x+7j5I6NzYH7ZMlnV3dJNPYA+7tK/HemFuqSaNNAWn1DwwOiasQ8DWtc5eOkQKiu67k+XDFCMmMAuCx8b0u2/eQUje2nve2rIlJvCCRl68AcK970zpzj9S6enCvRyfj9RvZ4vAWOeyuw613SK8Tnq/V0c54J1se3n8A4JmH14+QYldPu6vw4yTj02eS+PK1ENbkhONrbb9Cit056e5ZEQaav5HEVAXyeLrfXv+fkGqbzzk/1vNhBmZk47B1Ft6vdfY2qXZkv3NxmEPO7DxJzM+igAc69hppHbhKqm047fhYC4ssD6t8Foa6vYYL60m19bu8HwtLyySxAgMP9xmFuLOUVKu+5elYOasksQoTT3cU0tIf1i4zq73jEcYPhQVeGy+0rV3V6sMylExEjbBWvjusybr6vfU/F9a6WDyR/BmJeGrdHwjLKMJFIyuMkkQaNs6yd59vbRx5AMd/en/F/4lepvA8KE9g4sMoHfkKiUihg5s4KUXuvReNg3ATmDO2cMFRCk3uJiCK6C2huNDcy13ayzObDj+x2hkNklfzfZ1if57VajQ7O7N2y/S1yYG1aeu27Tt28rRj17bde8RjKVZvvPOLFdmsEUv5Qb3lybXFjrV3n4vy59r/iXAs5Yb1JmHHUq6tl95NYMZaV0ypu2T/Pp72H3BTenCdYCzF6oP3zUQbVib5o9b7a95gxjrkptsPH/GUclW2ezt1HxKNtTDhD1bkKIRTOZmhZf73fxixPPspPVYBvFUcd9ETHsFYCW+s+b0VKWfAUrjyvMBUZQk9eQr4O32GVlWKxUp4/h2iWPFikbNe5r/kgT3A36ZP6a69QrHefU8ZM2jFMqSRWeX5gKlPPntKsD5/c+0MK/KFEdSzZMcflvdL80wrkm0BNIl1lhAmrKw4xPLlkVlV14SjXCuxpqv1isCSWBIr2QfqJdVJrOnqk8LBqheC5T9XxtAmQ1xiHTlfor2qC/6oYeWFg/XsYiFYFy9RhoovRw3rSgqol5IusaZLjzCWxLoqBmtdw1faO95YETWswiZQryAghw7TBZolFpq3BcEqAPVaEax6nWPVIL9awlrN1hZEhv658YfV3hYOVjvyo7JGYqF1SCyl9uWgni1VYk2XugjUWySxNGB1SqzpOsPBsjok1nQOa2SxJFaXGCx/WWVlZTd0V2pqkyF6WK+CeiudQrAqt508c7IHek6e0dDJXn/UsJwr+bG4pmgaoCEGp2g4sPqIxFLqB/UyhGINxCAW/hSeZDBiVfNjDfZs/Xrreli/9WsN7f6mYl6wLF8wYg2R2X1h0ffQAcUaBvVGJNZPjUQWS2K9JrHCXyc5KrF+alQfWAZjqOYZy/BFzGNVDFy7gHbt2B4OLIZ1klnVMY/l309DdOY0MGW4zja4rMGwRo1PB9ZnnwAey7dajjqWN5nM7jWIKaziHduR3BHGavGBWr6WmMcynL6BVRwFrJsxj4VnvBBhrLokprVsTwfWtQhjLX4W1EoRhLXu2Nj42ARMjI1raKzHH0WsFHWsfBwr5uezuLBGCNM6yaZCMrvMiGE1xCbWMMFWs7FhDUsstIKAGKyy/Z9OftoIjZNaOjDmjx7W0lZQa9lSMVjG7sHBwctweVBTHogi1jJ1rKAYLK6ighWcYlqeRYb0jrWazG7F8vB2/JvZKr1j3WLDwtaykVv6x2JaoFVkikesVWR2piKJhdbnYMLCVhw5EvWO9aGdac3Rh2R29g/jEYuo/60TJdYvJYJa/RjWq3rHspqwARPH94KesYrYsDIkVvi/WzYTbEm43rFsnWR2m5mwUjv4sbobb9++cwpO3dbSnQ0V84PVkco05fmaChbH5J9LmfxzaYh/8o8HqxzUSkOx9D5TimJlG8PeiUZitfhYHu6ktkHsvzTAhdWGTUylNzG8x0qCyyD2X0fhwkIn01Nt6jvnY2/t633oUFBIkFar/B9HCdKVJr1joXcftYOKCtIJUn2S3rG8LQQp2AFz1e8gSNVZeseypBGsEQOE7moewcoEvWPBMMEKTEHIjMMOwj+dJWK74EnRWFYTwUrzQaiKggQrOKX/Kwv/OiSmDAvg2a4QtGQfMFZWQnetB/7u3qNVR4Ri1WQTtBV9Wej/rCiElTMDWCstpnSsFHgrHae0uFQoFiTaQ2gNJyH39uEgwStcBsw17qQ7x+5uWsfTprtjO+jORhCLdXUxwbPXFnn/eBG2rl6MySodNQJznl5KXfcm7/M0ec9FaW+3YCxY7SAhWlGd2OpTEGxWa+LmnICDhCp9GXC0p3cn5c/dew5EY6XcJCGzB26OZm7ugzqTyeEkoTP1A1eexoNV9/iq2tfYDUKxkLEAUh7kkTlzjvqAs9Kyu3yVeQDmAcuYYeLEqm2CmEwAFnhHTDxYjtq3IH6wwLc5lR3LdP0qxBMW1PQFWLEK+30QX1hgWJ5jYsFqvz4FoHMspKTEepNGLOfSUVsN6B8LKyUxeYUzbCznirqhqSyA+MBC8tky6xUvNSx7evbq5UmApF8spKSO1cmdqlidtbemvBDvWL62vrQr9jA+ho72luHl3jjGsrSuTm53hH2Dd7bnfPhsnGJlLS8PODQOHUw3P/TFI1ZreZBlUNqZ3RZ3WN6V6U7GnzuFiVnxhZVS3sn+Qzp1KBd489y48zVXA413S+cH661qB88UTecwr9b6B7tclC/Xvd6784F1NYdzPqtzlQF4elhCI9GBh+KxvNednFhk6SLg6OIkpbseHePr0S5Kt10UjtXXSebIYTfVQcb18rS6gJ2ErCUF2DtOadVjP/B1+XEJpV+Jxmq9EhoqmDzS/6rVpvxvfK2JOStIiOyrgLnB89TdA/z9103PD4rFMoyEpMofmvED0FtUayd4i6+yfwqraNVF4O9iFT15USxWayHBa89Eptaf3byCEI5FNNE+dJsTa7WToKV3WQApqy+EVnaW/lfR+JJDWNkAz5Jhwv+Ft/SPNbUU/wxaQ/NmEyyTVf9YH9oJknOzEULWFiBYQ/rHyiRYi5u0f3+mGfWOlVVNkByrYa46gui41Kt3LF89QSosgLnKzSFI+Sl6x7qKDt9HLSrDDVxY71jN2M3asZJlK5qly/ixSm9MMHTKKAxLfSOs9g6Yu6Z0bJ1gGz/WxQM7tLfzweX5wWrDrpH8q6ob4Ip7ORMppl/OTPaq/S+zJdYvfQFqlYvCqnJrz/UomlivgVqZgrA8G//H0A1jdLA49nXotOl96LCokwlrSG6vEv6RTqskFucuR1a9Y3VhWLfkZmM8m43Jbew4trF71SGxfsrRxXSrc/TpHavfGbl9SlfJTV3nPs1dbhdsC2MjaonFt2v3an4sz8TGDRsroXLjBg1tXG+cH6wMNqypoKAzLEp27nQ3wKGdWnI/iuIZFsFlYe8kJQ/8WKqO1Sqxfi5QEL2jZErcysdQ2xz8o/g8d8czsWH6Br9nvab2GmIZC3/cmKn3ocNRtkfLKfIUOvxgNXlkH+eRfUl1EuunburimFHwY5ViWPJMVv/xR1hVEcZK9oJaNTk4VpwdjcxxjvR1g74P3TaOsmFZsmP/hPIH907i3b8YyePcjaDaaMxjGY6cOo2393IEsUZBB1gCYsYql1jhf6uNiMEyep7kB79HU6VRxBqJHta5B99+++038M23Wjp/zB/bWMMoVqxP/gnAGgp/7l5iZTBiZWfF/nHuPGVV41hMx9DV1nBj7Rl/0PtgI0yMjWtorGd+7lk12AE6faDeSqcQLKh4khHYigaWc2X0sJB0gPWqQ2LhK46QrBJLyWGVWJHFKuqUWCFPwMQXaEmsVImlAcsG6i1fIbHwVzNDH9onsdrCxpJYwTbGcxH1jpWLYAVaQb2CAJlVnVffWL56BKuA8a39PF9kfkgbYhUrjxGrqVAFi2+KZnz8u/DjmKLhxkpvAvVS0nEsHc+U4lgpEivCWFck1nT5z4J6SXk4Fv+jsBPKo7ATGvr2WPTuWfVJ4WDV82OJf8iqbyyuooFVlxT2vooSq9YL6nlrJZbEEoCFrpM869U7Fv4UnmGdpNn8pTf2D93myXsWwbKwYJnf//7zF9mvrDLgb88Bek8o1pfEzIb1xQyrv7/0zz+/yPzx2bEB+JvYrn6F8vTi3z74u9nMsjnr9T9afbxkwQJWrIprlO7jv7TOHaS01y8S688L/vHOjIurHEDrolLz6/9IWLCQFQsm7lHX+dsTP/A0cftbF931EMRiJbzxwVozH5ZixX5lQcXunZS6d/DlpnTn4QrBWAsXLHzvbbNmrKO//wwqVuxYUNpwifJ3acADgrGeaCW88LFZ6wupm393b39BseLAAuOpw49O8FV8+G4FiMZStH78ndZmbVjm9196cr/iwlK67OHrMohOwVKurbfNrFgvv6tYKVh6CsdStN77P3nnsFhBDIbR2vhq2zZT6yq1zWVtt7t5rrqPVOMyo0Vmm3v2oxPrn1tqSNay29V5KzHBm2TBBNNJPzUSUubKXQglAniXLJgwdsgvi0U5p4ezMHmJrJQMuG2RmUVqWBa93SJuV4gQXFZbBhgnLMAa73ZlurLKro/0E1uWXyRY1jobtWet4w6uK0+P7a7W11jGQqa/0K58/TMhsyX122WdGpA1OgZGaYCP0NRkQ8aYPWsdD3NduXRkl3VCwMgpFFtWeS5kkAF7uFG+EMn7NvtAZ4ZARnqVyK7KEiCHtC5SexA73t9m0blZyMksFllWdxYUmAZp/+s716WWe3UpBHKaRJbVrnJFttbpVDPvnkG63kWgoEHg9jApDirOzinvEcuNfnp+ppKVW1AmbCcrAYCmHC5zB0enh6tQkS1qg1jUnqNxRSSblfPyhXl6Q6AmK1BMV8H50EBmPiyc109O9EsEWlslApbE+oJ86DD2yb1XeLizi0BLbHuyaB2syvAc6JHPX4we/sozi7TVYTCM4lYH6ppcNA813G1Xd+2/2wytDdqceSUn/n6vb9dksYDqMVmagSKN2OuQAdr5/v/GSzhbOMmZMLVVejyCN5oJRrnnUQz2FsAkquWTtHX/LuxuP58OO25xIDGFL6ZFxansiBZgb2JPg7xZBextIIfaOq9NvqhpDTolWdeZb7Up+4uZgTqAvUdnGGyT0NlnmTEpOXs+3aSNFnCl8Uz2Sf5lTtZMCRoeqhyuslA5+BSnAZ6yrFGIHYupQxxldaqh7inTOsBPlqX2w9U8GJrDTZZZCX3/PQsIK1mQ8iKcsF3PhvjIsuiIlQZpZ2IiC9jlftRvjH3ewkAWaAvTWO7nHt/MuCyOEmKr9ckObYDMyoImP5zGmm8MKrwJMigLmMTi1I8/V1R62qwJMyQLIErrnbZJ5WdTsVIjDMRBmGJZEAIOtex6dXhi3KRDtKI/rGoEZSALpknWlqa+sAle2y2GzoAJcVT/BCoDT53MNpTZAAAAAElFTkSuQmCC;" vertex="1" parent="1">
                    <mxGeometry x="230" y="50" width="77.2" height="70" as="geometry"/>
                </mxCell>
                <mxCell id="14" value="" style="edgeStyle=none;html=1;fontColor=#FFFFFF;" edge="1" parent="1" source="5" target="13">
                    <mxGeometry relative="1" as="geometry"/>
                </mxCell>
                <mxCell id="16" value="" style="edgeStyle=none;html=1;fontColor=#FFFFFF;" edge="1" parent="1" source="5" target="15">
                    <mxGeometry relative="1" as="geometry"/>
                </mxCell>
                <mxCell id="5" value="React Native" style="shape=image;verticalLabelPosition=bottom;labelBackgroundColor=default;verticalAlign=top;aspect=fixed;imageAspect=0;image=data:image/webp,UklGRnwxAABXRUJQVlA4TG8xAAAv/8F/ECou7///e9rvu/6X6rwC/8+TT98HPf+fV2SC0j5ez/fr3XfP8/z9fntWzEByJFMkNNOoBTEg4TI06dIZSBYuALUTDWpiwbIgUCh0g8Dso1CI5vxzmKFQqLkmU6QhSwVq4QpAchgEGWZqegpVQdANAjNSgZqahSC+fxrULOT7B1U1RQKZ5ZOQTBGWcBkQ/5IGQaabkVRVLFMoXLMFMTWFJggUCjVBJjCbmgL2zPTUQCwlaULCBThCl2MGsXABpqf4/UOQ2RIEaumRoBtEDcvE1IKYXtoE0UxNIfCgpha4ApUIwswEmUahJsh0gzgMBFHRLAhsCWJqanZE/yXQ2l7gzfmZ8itSN3Vmdba3zrYyGzUys5ht2/YyZqyT2bZVYwL4Wv9f6/9r/X+t/6/1//8B9j+1+9cujqCawfn5ATghzOUaU76jrWOsMdNY5djvOGRc6NbNOFruWOdIdEQ5+gTUC/AObf17J0dDY5SRbOwzbjteO/47SmubON247thiTA7o+K89w0YC3QP6OZbtN/IE6Phj3HFsckTUrPNPzKGia4w1qxkTHQccLwXteNXX0buGaxhHYIhjupFqFIvKRMdlxxxHu4xQja9mXSPGcdzxQxQ7Chwnavb9jzZhFjWsAYMdN4Wi35FuTDWqhFKiAsKSjS9C87Rj7pgwiX9pH8AdH4Wu8cyxwNHIGdrwbUx3fBLCjvzk5mEOUcdPCXHjs2PtXaGJScZG46dQN347IqPCFgKrPyBmNB464v+dR+jAcDTGGJliyh4XwxD+qcVIMYrEpEk/v+m0vMCK6Y6/YlZHYZ4zrGD7S2LmHV8GgpVdY2hyREztOFYYNmA06CQmj0gPJFblNDpdFrM79J8CwgIcA+PF/EmDHeWtqOC48UI06Hhfs4L9m+YXLfpbBNS3moL560SPnUbZveNGiWgz21HVSnzGkOmizdMBZe3dK37RqL+8BrWMmq2MbNGp8ebf+tk5R4t40WtFhxpelnDmiGjWkfFfbO2bEej4Jtp1/HvwPzprb3Uz0a+xw7YVXBYdO74b4U6tBSJjSqLo+C27ZqwUTTtuBdTQ2K3GA9Fz0iB7FtDaqyvxG9sD3TVV03e3aNtxr8COrZ0oGje+1hzp1FDOPYmicWOWHXOsEPVGjvF84MCBjYtMIWKkHtVOzVAjS+ivO2Ic/sExzRg9rWX30X2Ni41VJRnl7JdR06XG8cGx9ZYrPTnomM8G3GAsMsRpauJxzAtEWqkyZlcI7XXG3u5Gm54c/KnGUMfuRBWyxX4dEYXFxuo+bgYaPuuNDY1JiRxz1NaIUctxVygXZbcMqOxmaPW7nRSI0dluOboK3rNoMuO3O0ZkxxMSz6ICTRQYSR6hW/TT+AJWWGqsV9Auyl5FtcM5Hk9ixWtvME5VkBFpN0ALJe2EbIXjYED3GFY9fgVMHMPtldFf4MaRUiZY1saRRkZcjoUxpnO3jBeqxrtFY5niyTjYwCg75XZo2LAcJlqSXEREpF0fk002TgtRfzdHLx8TPTkRJf3tVBNBv5HDdDMCJrQjIsWOcaaq2eG00Cx+YjUTHpWIOua2UVtQiwuZtDu8Hw2RFtWmKVjkF5JF6alM+1WUOFrap5NekJHbh8lvzKYhxtuApibZZyghefrSWia/HNXCPqULuA2bcVILEuJ6PMoMrxQJxaK8Gg5swpjGIFcNf7tUlQLq5zYFc33jGgURQ24iF7VIKFYk92RzjgfJh3apZjfB+iexaff+SkFWvEks0H2LUMz+Uxk27eegxm6bNAw0h03su2E6AXEZsW5KNRvHCcGXJrGJ/6jAyEZ7VJqF8Ww3E3PBh4nqRMrT6EyrEPWRLX1s6mdA2+zRTsEae9jsgWQ3AXE8OkQkobOo9/Z1uLHJB3kxjif2aBlokumYD5xQJxEjSIwxUkX91itsfuMMRg7ZouswI1mHBXlZysSf51R3dJYoL57vYw3eCnLE2aFRgnUM0gLzmpHKRD5NUzU7U5S/eJK16B6IOWKHHAmYxDRNsHtahDIZu0lNS7+oLu7uY022xvib26BWmKdYn58ZQpnElSgIRHNEeatGrM0/MFLP/sRUYMI1wu5VRaqkqAnsjlaiOusmJ2v0Jcwy+3NFoEVVOmHe7rikSlxvgfIXi2rj/ijW6k0YQ9mfmzDZrFl3y3hFIslRiFGzRPXuUtbrIYw/w/Y4dmGMSbphXuh4qkocZwMhZAeiRbHx6wXW7nSIfG97FmMO6Ydb/VmV9OgZknoVonj/dtbvcsxou7PBC7mOtXxDkSIZWIMG7xevqPW39rGGYzG97c6bAv1JT/xHD0Wy7mIwnI7lonhlE9ZymR+y0m1zAjjGiNYUVzrWKJJoo1ltfH1F8dY1rOkTEPm3fjbnE8zTumLuX6xGkmKDqHpdFP+5lHX9DGavzTEkxB8I+uKF16kRVxtmTugtaj3dWd83YRzjbc4pSDvW+R3d1Ij3C84wpKiNO8Ma34j5wd6keSGva42jeqkRab1f1E5dzTpP8EAc5+xNH4F+ozfmVzLVqG6QxnpvB5lub2ZjuuiO++wyT7qTNf8pxJtga2ZgjOba49SPTFIxhbVvLIZIH1uTjhmrPy5tYIqUW1n/j2Jqtrc1P0GynBbA1xjyTLC0EVvgc5g9tsZxHnKCrfFRF7V7m7MVNsIEcFuzFeK4YhH85lBaXdPYEnNcEMdSW7ML0swquM8uSsa2HLbIdZCnbE0SZJllcKpD00m/xsBWeSdkpJ0pFOjL1sF3vETE/yhb59uQdnZmO+YLC+G08yRct7CFlkMi7cwETH8r4aqfCMTPZivtAPG7bUwJpomlsLO9ssQ32VLzIFJpY85g9loLc56ilVfYWt/HbLAxBzCvWY37ATVvscVOwYyxMXdj7rKah0RtxFyLMQZg1tiY2Zg+FvOWqM69YC1GT8yfKtmYVzEnraW/V5k0HmMp4ZiFNuYGTL6lhHuEYI9AsJI3Ma/ZmFswgcRKXisWkoaospDXMEtszBDMZxYyYaUQfcppHZPs1iuYRtYx7zoh28E65mIO2JjZmJmWUfirEJ5vGVcwT9uYcEwdq8jpKpT9I6ziacwZG3M/Zq5VHBbaxQMsYi9mgI3ZizljEY4ZQv3Uamt4DrPQxvwd5u+s4VUvORm31hLCMXVszADMOUs4UCEmPJ9jBSMwE2zMSUx/K7gQKXivAhlsBd9hDtmYMZhHLaBssSgMjDOuKpAvLWAKZpONicF8qL+cSlHYmlv9qsDfRH9fYlrZGE6C/Ka/w6JwGTOnXsVJxATtfQ1xue1MJ8hy7c0XhcN9zMwtO+Gk8R26ewKSwnb2Ycgw3T3nUvB2IOIgJ2Xi5J0qzf0ZMtDWPAAxhOZGRQi+RyHXdqcLJz9ozjgJ6WFrNkPu1FvZUsHPmsrBbKNAzurtRcgWW/MTJEVrvt6Cjx7EwW6toKJmE621gzSzNdsgkqCzXoKPb8vBdz+Dk3VTdbYO4thsa+ZjWmpsiOC9/TmkVW/jZH8g0leVH/K7rXkB84i+6iQquIdDXv0wTpL19ZlAv7Q1j2DWa6u6seAHM3LNaZy00dYZzHpb0xLzpa5ybhP8+SgIv5aEqzijq+8wT9uaBIyxRFftBd9uLYNrMi9MdjXX1BeYlraGV0Le0NQLgk9pxPBvcHJblJ56YWLszTjIWD1diMBVtGW8swFOftNTZ8gKtre9IcVuHaW1E/z/YJWFx3BeRxctGRJiKJvzA0QCiYbcrwv+N1b72WmYrMzX0XRIb5tzE+bvNPSl4J/3KeLX4mGyNUY/MX7IcpsTjmmjn0c8uDvTWPkqnBzWzwSB5tmckxjHfO00nyjwyJZM8DBOXtWO0QPT3+ZUuiBv6CbqHYG7ljDFnHdwmft08wvmLpvDOyDHdPO14GcwzTFxMDmWoJm+mDK7YwiIJxDppa0L18xNhOvHw2S5ZlpBTrPdXQaROlqZHCdwQ5Uy2UdxMkQvnSBHbE9TTLVOnJsFnrKGCc/BRa/RSYZA69qeNzHbdPKuwF17mXLBAzC5t0ojczH32J4xmM0aecSF+4Vpr86FyTaNTMF0tD3cCXJaH4HuswSe7SbGB1wwb7g+2mMG2Z8tEGmuC/fzAl+6lsnfDJPTqdp4B+JNsD8fY77XxU0CzzrK9H1bYLLFqQn3UEhDtr/GMMwMTcwsxu1hMzaPg8kCTeQLdJgNmosZpoeCqQJfxuZ82gNLqqOHEZh3bVCMCzJdDz8K/NeYjOb5dQbs3ftkbP9p0xZ0H72o1h+Tg7tsUa3vdl8wbVr/2Cf37p00KP+BQg7gMGkXo4U8TLgN4sUQGaODcC/M68gRs2bGw+QHLQzHbLJDnTHh5svpkyJW6n1VBzsgK9gOz8e0Nk3PSR+sat33xq2nvGK1Fbv2N/hxdJdzEwLBNBu8kC226DVMV2oFjQ7syatriIezJDQ49M7sDr8M2fhv/ZzUlgi0ly0qdUFSrjFQKcgP757cbaBfQqPxA7sld48tKSXzOKaeLeKpELmgrGpmx0uOnf1OSyjYv6Oyw/t7xxLYjBlljwZjuihYO+DZhxo87JHQdtHlP1/qeChKgXMlJCnHHv0PzPWQqPzwvPJxXgnNV4wrzwvPx8wU6Itsjy9iroZkw94vr+8RL3Yxt/Ljevt8IemC2WaTchIhEkhq12qjEb57nFfsZ9GR9OqZvmD0xTxpk/htzHpmLjjTtHNDr9jZIkP2ejI1iMWYeXbpccyc8EVHssQex2V33/iZQK9ju7wXY7eNfEy5bSr1hAGAb7JNbKSGVdxln3qFURRF2ac/9Qmj6M02Ob9lt/gwiomPL3TbHmdJ3mUJ0zy9O7bQxiTM/uS0hBKTImtdMbD2pyJrzQwNiEhx9rNltiQhtjxRrDfiOof+q087J//+YPf3u8TefWtJyR/5/9ZvwwYnKyzcEOienz+q5Mzejv2nLXh30Y91X+92uWGux1pEpKJrlwBsMxJiyxPFShMXHe+4t2RNtY+1WTpv35Umt3y5yzJExLN52gO2oWp8eaJY7E7W9fYICxERV+8hCXZgwBMrxHIHs77PWouIRFy/1xm6W/3hQdFy/MHP27dsYqyDTQ8EjbnPw7otOb5tuKEy9SMis+4bFWprtWekX3QbP27Yoja3rnYyM0+IR3mXsM43RaBkNtfa80q9m8unJulFRLY+tjY0dvHbTNHqiiPLF4TXoFEcTKfjhqCXs96PwyZm1BK0M//+L5aNPK0RkcS6d4WyCmqyfqLPzJeWP3brHRzytwQ9cYPm3N1Q8mNwatt87/y6l4s1ISI9/kdh6KnlbytEkwOH3T67pZOxqUNhH7Dutxeh/BtDFqTvj46tbzylBZGIw31CRc6dXf2iQW/DzjMObGCVLQT9Cev/C5SMq8IEndrk9gazzCciI5u4QzuBqMsJMf+un5u2zWDVTwp64gYLcL6Ikksqgmx+7mZDRJhNpF2bgtBMoRG+S0xfc0d1PlNM2AEbz1Z4IQtVnK+qVt/M6vQUc4mcXjQmtBJItkWIBi8xzV6C/gtb4y8ouZECM0dFmk2k+PCa0MjJOfGixcs0BnlQuQ9YRFQPlIygcUB06PlkTWhj+xyX6HI7BfdXgq7HVjnXhboujcQyLYh46uaHJqamJ4k+H6PQRdBvuy2D30PJbxScpzQh4i9vFFpo/l6WmHNcwHvMSAIBOBdVvIats7QxytOHQFvBJplBpKLvptDA2m8yxYzx3R7L5/kY1wPq6gp6AVvp/SgxpFvdE5jppTu/nWgCkeJvAsHqfGdzxYS5u2NbMTPnY2SKso1eVI8oS+GfUbJHmTMO04GZ3UdH3+slJ3J6VZSltTWU0J+V/pqPa7sVs1mVb6qAXSVsrT0jUSuqVW0U7AEOetMXR/zURE7stK78ZkJ+13tnnBzcPIxrsqL3Bb2NrXYaStJVpWNyo2rDzKnv3+YiJjLyojWlfZMlxGd9fMXNIeyDkbNq7khBTS+1HLchUZ5RapyzMMs5hM1XfUVMXO8VWtD904V2Vnl4FAMHYkaqWSboD9h6Z1aApJVbSVvBLgkJM2/q/jApkbiazGo2JAtp/5FphYzthfHPU3HRherNVrwNJd8pWY5ZWQVg5pL005REtvxhKetPC+WDlzYx/AxGHlPgfkfAxfmWlLYLdV2pgqoUTF1GB6KO5/2EJPGXHMsY00wIx5fvdbNC9w7MVwrqCTqAszU/iZKvFYwX7DkYMweSvE50RO6sGWoRe4YK3emXerLiXhjvJljhRNTiSovi51FZa3A/Y4ZWqmCuemGkl4xkNXVaQCD8JGT9XT/wsfJJGOkOe0jA3rZs1WuyQPIprDARcz0rP5keQUVk5GrtzV0qVDPb16BM8RrDQMwxVKN41DNs3e+iZAmqWrDPqWPOWHAdFYm+RW/uL+OFaKd3AzAT/QYjR0HDBbyyuYVVPow6FgXqiukURYE559XLRESaZWhscm8h2vB4DJOtA/od83eCfoyt/HuUrMLMc2F+YLJ/96mXhjQcpK2ju4TmvR2dTLkdplMUwnkZNS7H0vhTVEoZJIAL9god5lGv+0lIYj1NPZkpJO+MvcbAtFtj5H7EFEG/ydaenwWSXpATmB1uSswzd7soiCRXacjd3S8U29VkTqa+D/QUoDAO9TqbumpD/sz8O2JMxV+j4hsB6gv2Qaa+b7eLglz+TDsFPwnFh/s72YQfYYozQvaygIs/M4mvZNq2GxtWSNCuq+fbr9pYZZKYHSBpAUgGTSDHvK8ZBYmro5nm+4XgujZRbEojHCPPhmh1MWo0m7EGNcJbrBRk5vnufczA36Hk1hDFDMU4NJvyTD8CEn2rVv6t32JRH5+ewSadXIE5EqKnBDw9gd7a6m5eUTgubzU9fhu11ReSVwX7pTmYwxuqk/j1GvlsqajPzmfz3oiRQyEY4EXNZuon5ySJaleLSeQmeEDSJiSbMZ6eZuGcaZ2UiXeBNg5NFOUfPcJmfgH0WwgMKeDnmfig3S4heSScGLdHnUoL3nY/5kY2cVmyX5XIQ2491OkkqjO/8LGpC4ZiOuUEa7yA4xvRKkv3C9ns7bQ2rABJXvC+FmxHMzHX36pMfnTroCRSVPf+jM1eFyMjguM7hvqNKburc4VycV4BJX4MVTQmOFETMSmV5uKo+RGq5DcN1KCdRPHpIWz+tqAbg9NGwClllMYeEerjJlCKOgaSZcEZL9gn2PRTm6mS2003eako/ikAswadVzGuqbWL2YVaxYT3rhP6WUY4IT6H8hwKxuegueZjXh+pSOabLKGfqI2exnq8HSOXandJwO1y6Dgf8oopnymgw71B0qB2U12YcazFntmKvGdNldNb1B7Zzppc7cc0dgZ1x1DU/Uy26ikx620ZdGZ6QPJ0bfIE+6Ue2L0qUYn4Y83UV5R6RvtYm+cx8lxQ7wnYEEy2tLeY9855ZLgDykh1B+GbjomfrAnmP15SIsVzzfOsKF33CGv0O1CDILYngTwzyRTuFzMPnEemLAUkLwSxU7DlrM9A9KMSmTjPLBMSlfRYzTqtXIFxbarlGQEfZqpVXcXcx8qo8HzUwKpazoO+1wjzkEQV8lKVOUrbicqfEliv72HkZmae6QcV9aTi/FnMvr+USlVDkDzKzI28mMZOrXCfpSrkPXM8IwpdN7FuJ4BO5TC/IeA8pvq7mP8NNxF+BdWpkDldsPewZjc8r0KeNMMeUZg1gvV7L0ZiucQLOh0IVJp4NSBfUHF/BZJ7OG0oxpOqG45KVrFiDL0xkQqKvmcN/w/Q29xVwI8y0U0posOK+kT4EdTKsuOCbcEabunFyXk3uRaCj+vDOk6LxsifBgm4cRWRqP2ix6sZRLgBSBY5NOicjviWCpzsobZT8NPzWc8dQBNRrzDR+aLLdConPSBHrmCn+7TE55JwudW0qhbjOp1kTe8Doe91E+k5VBuui0T4MAgdwFnTzyXBZDCtpgJfMYq1fYTSASbaWfT5gJPI5GhCSZN1xTvjYf6LlApzYdELWd/9CXVlomdEp0OI8GhCu1nfIzwoOU/pQ0G7lrDGK3PJeCdReV4r7ZxESk/RmaQxXgWTA3RKI2HzWev3kRnGROt4tSKzifD7ZHqw1t+DjaTzvqB3s97z/UT8g6gME73+eo2BSM5SKjfozdkCJVeoOBejLhdojnsTeYaJpro0I1eIcH8ikQl648KGqGFUbhVw0gTW/TkaFWuozBDdHqbi/JXGQ6z7kniQJ5XI9agFrH3nwySSmepY7URWEuFwEq7t2uN7QBLAaSRkgl706Y/fopA1lcpR0e+TVPgIhWasf6chQSdofCBY/0W2wMKhBD5mqnka+oTMRgpnLID7uDAygcRy0F/YEt9TlzmZzDsauo4MP6/uXrbEb0G3k5iOSdpuDTWoX9l9TDUhSUPSksxFr7Ih1tA8GvMihdWCPcwWma0qcTKZvaLjaWT4DVUTq6yBH8JUpBEYArpoFXtVbWOybi0tpzPTr8jNFvmZCyJvEvgNcy9b5lg1Wal05mjpr+jwz2qKq62CG2C6E3ge86h1dFHTi+n201InQodcSpaxZe7E/ERgIKaRdVTGqSjuSShFS7KBDv9Fhf+QdRR6IL+qu8aQBIljC/1QxcdMNxBEzxcJtfQoGM4W+hUkV90dAu1sJWVFuKx5hKZq6hFC/ImCK1byIMQbo6wR5hsr4R9w7ZnwIU01obQ6HnaErfQsRFKVDcLMt5R8Fyr+3/pRmqup9ZR4OWynpYzHtFS2EHODpXAL1PVM+e801YZUvqMENNRpKWcwo5T1wbxlLR1QASmk6muqHqkBAnYUbbKUuzEXlP2BudlScnahTsVQGqWp8aQ+R8k2S3kWM1ZZKma5pdwg8LOUPtPUrZTqeGERG6zkEmaDMp8H8quVuA2Fm15FqFpTcyk1E/yHVpINSWT1uyD+agtZIgrbEHJm6WksoQl+BZ1irCMqGrKYwDsQGWEhm1VMr6LDd2op001ouKh81DrqC7QrgScwz1jHIK8KaUNomJZ6MN2LXiWNoyyjPWYRgWmYrGrL2C1Kr+bQeVlLTxFqIGpftYq0oZghBPpg5CarGBOvRtrQeUVLAZxOiVdRD6s4LtjtBJy5mMU+i2gtiqdXkZns1dEAOjeK6rbW4GuHmc4Uh2GkizVUrlMlbcjwOA1F5JAp8Sr71BrOCnYOiRtAE0st4RZRfjWHzA8aymayz4ty/wUrKDwFGk+irAIj91jCverkLJkmGnqLTH0h+KMVLBJsUQwJPg8qyreAM0IwLoFKzmnteHqS2UIh8Q79lcSDfmKaL4DkK5/+OlOQplS4vXZuZKrfC8lL2ks4IeBbiVSdBklT7aVWkMhtRWWudl4h04/GugLdLRNwYycRvg+VNVN3XwvN26nwr5rpFENlvBCtyTQ3QtBNmeq8eJA0DsB6qzxNJLqayiua+YWJOo9R6aG3mUNRQzPIcF2UdPVprb9QfYiK76BWhmZQqSdkz+is53RBv8x0//CgZJvWDEkmax4R3qOVPCaas5TOUxqLeUnQQ6sJ8TKY7NHYIS8Z6UAlyqE1ciqDyiqhWzFGW1HNBH4PU05NhLk66usHoVvRkghv9OqjPxMtjSMkebqK6izwiaWkeDRMKproKiGSkPxMhedo46+uMVAZLZRPVenJ94zgX2DalQdhUtxWU1MEGw/y1qcyOVcTWfuYaKB7NOj/MV5hZL2WfM8IvhtTX4KTor/Tk5EKMraC5DYqfL9XD8eZagcB93oM9JWOKn8WfGIjclwXJ0mxOioR7K60XSBpQoXv08LrTLVRBSgi0L1wKEYW6mftbaLwMaYfCNNx4pqmoW9Bo/ks6k4flZyvNLA0g8wwAT/O3B40WDupW0WhIZ0m4L1+nHgDuHbSijCeVM5ZCpJnqfADB0234iRTHeAFpWQwN/JjMgNBM31micIV/9aPTfm1ApHDOZqZIthmzFwPNTGBCm+PM1niFSZrSAHPYGY+j5HjepkdLQq9d7M5fbepkL9qrpcjoDeZ2XcMJG4y3GeoqSqeY7I7BRyXUEsT0K86ibrPKyq/YbOOmahCrluok5OCbXiNgZl5PCp6Mhku6WSixHNMNucgahXX6hyIkbn66HmbKH3eZxo+mqhCkvZo5D7QAg7yCEiS6XB+Q9NEnmG6RriAB1YFwU1B32pj40RRenAtm3iIV4XIsgRdRMVh4icHdZcX5BpEh8f0MMnVQ0x3wwpURw56bSamKBD0EDW6QpSuq0HZ1KPVyImLmvhAsH/h2g4HSTdCXJBuigZlTPg9Ab/krg1/i5GzWsg3pKgdepRN3l6NVOQ5tdAA9EjtLlSAJJwQ84iV5Dzd3Uz4j3jUI1z7OqCtGnBPyxS1ia+x2X3D1YicH6OB5hWYge7a8TLUwRxKnP85sX51mHQDATfg4N6LkaOmCySbRXH8EjZ/VbYiWTnNbboFgv2Fgzk5AiRGOCnm8KuEIlv6mHRbAbtmBqsNqL3JnNOGimLXd6zDGEMoEumWbzaHxnhSg8OPoyLvoMWlH+YSKdpWzbSdl1HfcrDTojEpgchUCy+LatcNrMeEbqok8csoUw0SbDYHu7ATSNoTYy5tOYtARHpPpj5FwInzgseHMdLRRBk/uER10pOsy8pyVSIfHTXTfaDxweNHUZ4J1JgL1n/uUeL9qzYZTD5jHeplDuFF0I2mca+PE+URB1ifvsPKxL+7uWmcuzDrckIQdQwkf+Umx8w9vzBEMajiyIfb2Yy/C7hTIISEjVSMZ4xJ5r4j6lPqs1a7KxPJzCswyQHB3schvRslsWZg5kD0d49/vtQVLO+Ozffdn8bmPFSB6sIhnoKRL02xabdX1E8cxZp9zK9MpOF4c3wCOhQi7o3aVWqOIKv2PRfb5ovuTad9d3edBDZxVwEbyhey0gjMOBOUfRwvBI/9Wz/W7qtJ6kS2XDRBTDSmH4d8pgckX5tIl7MFvZeBdTEyiVrCl5FCcVgaa/jodALizb5I7gXBrgJwB1RSI4uLaYz6lJGvgdJplbacKBS9i5ys5UD3kQRE/OUniWVj4u9AlKWApIHF3S7gipMQPojpFEWotGWckIz+gHUdlU5BxF/eiNLaeEwLhjZFyd2WNjYTlc7YSxh5k0xay1NC8+Ah1vj/iKcgUtH3JJ1nBdsRU9UQtbjSyoYJOPIO0Fg/Zg6RyXkpQvTnNNb6mV0kRPwtzlDpjVlZgOHxKPnQwr4X9BeMPo+JiKEwYXCWEI24gXWf8WcaInK5JvNR2BCP+ZbRhkAVr7GsqhOohwMR7AWMxKrbmO0VqvtrULbA6ggiIgON8AR1bQT7GmxfBUh6W9aHgr6f4QUrMcMVVVbfKWQ9i3LYEtfspyJy+qE1qjZjdrhh/DtKYi1qUyZqOCusi4kvU3GyV67QbXgXW2VUaxcVEX/X8VEq7vBgHmR8xjrUrFbW9KmAkxqpOICRKbCCen8lhP0/prGFXhlHRkR23T4Pd1awfRTwDSj52JI+EHRrVumchekNmtA+UihPrc/WWjU6iY6Ip1mTKJAhMItZpbsfynXRghKuoqYnKOHfMRVlgLVT+gnpxO45bLk1aCUhEUlJ3ogo82AeV8JH/SAxUn3W86CgY1ntQozcEpJAFL47UWi//Qdbsbs6l5KInMjLD9Etgp2phr9FyXHLaZSEMqRbES/GfBos58b0FUL8VDVbdfOnaIn4b3s2I3jNMMdYcQBegYoOJBbjflvAnlGs+nZMUiDUbu7HcUI966EMtvC7XqQlIq4jRnjP2sVkYkar4kdR0sJibhB0OitvhJH1tTg3Llos5L3l+Wzt7tgdxETEdaTlvCA+EOwhZc79KOloKdWnUevWquNfMcO4cm96nJjwpY1s/aV5idRExP/ipTpu7ovZyuoXulCnNljJbkEPYYKXMPHDI8SMSzty6HDqbi+5Wmctj8a8S4A7oGS5hfydF/VXbgp/YMzZ6aYqDjUezTYDfBSFVhNR3gOWUXlQwJ5RTNKhNbGuaQKHKvuU62Ipk3wVJQ/HWMXLgn6IaY7WwunuCRzqrL9ZD7/RYEOg5EGLmFCBui6NyAUNTGwZw6HS197WwUYiF5JQnqOW4PxK0LOZZlSJ8dFsu94q4FDr0597zZZZs3sqDW6NkrFVVvCWoM8zwXnjX64sEpN/1L+KQ7WN0ovNJSJx2Xnh1epilqKktQWsLkJl1aCKWm00wnc3FtP7u4W7OdQ7OW+FyYKMy86LnelWwX/nRXkW6q+roD9kfGp4993j/KLBpN2HOHSc1vKq+YJcUbmtJltYiuJPUGKoKt3dIuhxVZBWk579eGSkaHLWL2Uceo56crNXB0F6rz7/27N3tQKUrUNJa831TEF5N3II19bv0qvrdNGn//PxURzKrkHvy9VEbSfetnzG7FExweEXYJ6Fehsm6GSubcGo2d0Hv3NK9LorbxOHxgPRq3+lk6C912359lL/jYHEyczcACWGqtLZk4I+tYHHXHn1nmRDTPeKdj0tzvk41D6zfaRmah+/dEvd2xcUo6S1xtbOgjmyD2aJpgdeSuXQfSCaPTxeR6o9k/R1vVhsp/b13WwDy45/5bUYuVqmpYLUUfeIpUZcv8THtnHN7Q2tRaRo4sF7uzW7/olvuh/fE9tk76Sj+f/Wb0MBpdIN+RdKHtkbO2Tagtbv1R3W7YGDcZlirUnDv4thmzlg21VLQXsjI1MGDlx6+fLlt7sFvbm8vPx8t6BfvHy53cCBuZGRYvlJN07ZwLZ0Zl47qwsdJ2ZXZ7CNHZX3a9hGXPJzVWx7J1eXR4dZDHezTS74JKziYbbNXcMqZIxd8g0Ns3jFLl2UMMsn7NJbYQBx5UYiZqpdegrze3q/JHsUveWb2YGE2b0O4kqzSbsg3gDMnDP30evb+e1M0v4farKTTg76dYg8bY+2C/QY1zatpDr9SKL9GHokfdrGAg72+5gF9mgIJrl2QUaNqter20Sb4Dk4bPQHqxk4CjPMHv2AqQ5B0Bkl1YuyB3pDb56B2YuqS2IY7YyGXGeP9mO2Q4JeO6D65s4fRYSu1r0zuPvsCVWs2BAQSbVDOcWQiay++WvPftN5/6lQjmvHbXNGv1DSimm+jBlvhy4KtDOB2sYcuv/4os79ZnlCF/FXDfnMzVNuzc9h0jsxj9uhLpib6NTelzrpg7e+2f32iUgrW3li5O4H399Z0tPNpmyOGW6HkjFn6AW3amrJ3bfM+L2r11p2BHS7a2wgYrPvgCy1Qx9BXKVmqn2epWRNYB12hngL7U9BPMShWYdRR3AfBYaNiJ22qnv3mxcteiI5+afy8t7dgu53udYXuwX9Rnl5cvITixbd3n3GtFtil7Qt2dcN9yhrcQZE7rI/CwX6iRb43/pFwuR2Nun7Au/t1sP9mDb2Zw9mlR64I85/tzn6FMNyx7Ae52Ha259emEma4Dkwicw3w9qBAo9lXa6AjLQ/5yEVBbooXQyTrTEmGCbwvqzNkZAU+zMLspW1OakCJoPpGeECb1yoj/YQmWd3Ngj0L/rgpjiZQm1uPMxzhfXZBtPW7jyC+UUj7uG4rIW0NjQWeABnjd6FaWN3jmPCNcJl02HSuIzSNYYGAt/i1EmaH7LI7nTAfKYTrl8Bk80+QgFc4LmprNWlkGF2568gRdcYtMIzcNKLzgEXzLuT9dob8qvdyYXsZ726W+DkWSqrcwX+Hmv2CUiRzckQ6HLN8IYduKxJNAruFbhDF+jmC4g0tzcXMTfphs94YLKrOYnBAs88yboNx5yxN7Mxb2qHm+Lkq0oC/0Pw1azdfZhqe7MAs0Y/7nKcLFN3VxJuMOs3xg/Jszc/Qlw5+uHCEzh5VNWYWQI3VIyGeBdkub3pDbnKOr4QjXOdU1PQT+BFh1jHt0FutDeLIVu0xN/hZOg+JYMF35+13Bfyka1xJkGW64l/x8nVyQqaCv5H1vPjkDhbs0mg92gq6h2ctKqEfe/BTY3R1HGIy2dnrmDWa4rHxOFkDuqPSIEPXcOaHg+RMXZmNuYuXXH9JJz8gik8JnDvbNb1AMxRO7MKM0Zb3EWBvyPCly34x1nbqzHn7MzjEH+UvvgJnGSdAXQQ/Gafvgq8kC52ZhmkE2s86m2crLgQoi8FfzUAs8YjITPszHDIWJ1x9UCcNG4egnMuXPFR1vk4yNd2ph9ks9a4TiJOHigN1tFMwd/CWh8J+cHONIY8ozee7cXJ51HBmLdL8B+z3htArrczmZBtmuMHFcjh2mWMFfxtOZp7BtLCxiQIdIHunM0UyKWgKrcI/uodrPkfIW/bmMmYPbrjmJcUyFu1OJ8SfNEg1v1DkMs2Jh/TUXs85joF/u+Y+XfBe79j7X8IaWhjBmGW6I+PZuIk6QB/KQo/ZP0/BjltY65gzlgAn3PhJPFdv4JmbgvYA4m2Md9j+lgBz1AgRqngP0pgC+wIybQxIzD5lsDLFCg89W/92ApHQLJsTD1MoLs1VHWjVzyALfEDSIWNOYuJsQYu/JWafwRb406Iy8Z8gfFZBKfuINaULTIcIjZmPsZtFbwvktRytsomGGcYFT+SROj5KMu4G5Njr7xsoeu9ZI5lsGXejymwL19A/FbCC6jMGsvWeQ7iddqX+RCXpXA6jeg+bKGxkCy2Vx5rcdelEH+ArXQPJMXGfAHxuy2Ffc3U+Tuypb4P2WVjboJIqbVwzDvK3mdr7Q552MacxTxgMRwIPRS9zBbbGrLVxgzBbLcavpClxPhUaDW9IP1sTDhmlNX0vFPU7i+zmG8hW2zM32EGWMymh0W1Q4+xlk8hw23MRcxea1mzQ9Q3XmMplyGHbUwNinnFUibMEopxo6xkIiTPxjTH3GQlfzdUaKbcZR1OD+S4jYnBPGQhI7KEavRey2gu0Nk2hosgu63jfb/Q9XSxijqYK3bmBGSzVbhfFtLeAG4ROzFr7Ew3yJ0WUXm9UO8bZQkzMKV25hNItDU8cETot0iwgsGQoWxnb4ZIqhU0Wixm7NfcAgwJMVJtzVlMWwv4fqWYc1aJ/nIhz9iac5jj+lvlEbNmztZdmUDftTV9MOm6q/xW1HqViPfDawx6exrziq2JcUG6ai61n6ht/GqEEpGnYrQ2A3PR1vBiSK5ba2fiRO3BQMIluWrk1006awHxptmbZhBZo7Np8aJ23BhmnjlRjUy8orFTkF1sb/MwQ/SVMEcUv1TGtX7WUI14urt1tV2g2TanI6a9tk6OFcVbAoGDHnOnGpHXW2lqPeaSzTmJuVdXNVmmKB5WwLXf8KIieXiQnupi2tocXxakYq2WSq8X1R87Obhp5xVJYrWO3KcgrjSbw0cg8p2O6rQTxd4ZHMKcOYpEkmP0s1Cgv7LdfRBzvX7cRniSKHZ14RC781RJu6PaycP8aHuWYE47dbPpNlEd/Rwj93gUSUWeUzP3YurZnkIPRAZoZshQUd14AmPDExWJvD1VK/leTA1qe/glzHtaaV4uyo8EujN6bidVMnSITloL9Crb398wKyo1EpsryjvHMD5/nCqR3WXacE7H/GiDmmDkSW2s7i3Kvfew0sJPlUmnal18L9idNigmE/O5JnzvR4jyxCdZsS9dmUiDeXr4GVOcZoP4Z4xrjRYGfCTqZ5Ww+i4VymSoEe7UwBoP5g22w99hZLkGNqS7RP07PZnigRRlIrcdMt9gwfa3RaWJmPhNZvP9jxRR730oimnmb1UnFR+vNdmmeExShi3iZhjpYLL77xSC0SOYbMKf1Yl0auM01WHBvs72+FWQZ5CZ9t0oFE/sY8rTKtSJ9HjNRCUu0DmbVLoSI3/lNs326/1C8c+lTPvpTgTE+/MFsziNVMGeirJJ3Aske0zy2fIKoZj0FpOfeoSAiOuTz8xxXMAvs13O94NS8s2waVm8kGxXh00YlecnIFKRnGqCC9Egz1TbxNkgMVQpuT7JWUJzdymb8/7TFEQSP15NrfCEgF9n+/wmSv7iJuV+rpsQzf2ATTvvHRIinp+OknIPE3R9G+U+gZIObjplX5wQqptT2cRRrV0kRGTL/W4yzmRBb2E7XQ8mdX003BufyRKqSU3dbO67HiYict2i1TR8nwi8ra3ynYDJ+VQCE15uLHQ/6sOmL+xLRcSVPT5H3R2fCnwk2+tYnKS84FbiXph3pxDOCuBRrMP7T1ERkZTdsWlq9s4SuHehzbrG8Fc4kanrfah5rww+JaSPnGRN9mxAR0SKXu8/D7Yx2yv4p9huH/UrEDm1PLw0JBuefn93YyGe+ZiT9bn+NKFaB8559lBOiE42fVFUFm2yXfyEEhHxD/z0vu5n+8cOmTb/vj8bcpeYsNt21mqg+0+0aq1oN+zlVS+8ufBiya3fT3nojauieD7b78Idikx/qtrNug2fSI34R1E2jN/0aqxiWyCwhjPSXfrKmsm2vJe+tsxkTff5SluPsT2vuldTjcezvt1TcvWU7bZpvGmdjiI+LGCtlz1RoaHFGWzb6ydpJz65J2v/QgPtDD3ENn68Ry/+8u1sifVf1Ev8Xrb11V6NeMv/YKt09m+oEVcs2/w2fl34W9RhK3XGNtSFqx7b/vUVWkhafpKtNmfadC0kjeAwwI2dzBedPo+tuHJKO/PlvsZhgmummmzHTWls1e7wd0w2rgblMMLKRX7zuLrFRrGlT/opyUSDEzjs8PulJlncvSdb/wMzGprkVEcOU4y5OZFexO5H3Bw6dH7/czE9f/JaDmsc82M8qRV1mxRwaDImNruCVrc6HBbZvPtEKqd3h+dw6HPy2RuLqXg6T+KwysoRw7KUxZU/dtHNodWYc4cHEnj49tUcplna5IljfpRnXN9bWnKod94rP2x14fz3tp7EYaGFf/fYE+dPrKidN/fglr7vvjCoikPNBUerH3p+XFEIku5s9u6StRy2mrNhdX5+fiDZ4OTQeuG+tudib5k2rTp2SZ9UJ1/r/2v9f63/r/X/tf7/PzYFAA==;" vertex="1" parent="1">
                    <mxGeometry x="80" y="220" width="90" height="90" as="geometry"/>
                </mxCell>
                <mxCell id="13" value="&lt;font color=&quot;#ffffff&quot;&gt;IOS&lt;/font&gt;" style="rhombus;whiteSpace=wrap;html=1;verticalAlign=middle;labelBackgroundColor=default;fontColor=none;" vertex="1" parent="1">
                    <mxGeometry x="240" y="300" width="80" height="90" as="geometry"/>
                </mxCell>
                <mxCell id="15" value="&lt;font color=&quot;#ffffff&quot;&gt;Android&lt;/font&gt;" style="rhombus;whiteSpace=wrap;html=1;verticalAlign=middle;labelBackgroundColor=default;fontColor=none;" vertex="1" parent="1">
                    <mxGeometry x="-49.99999999999999" y="310" width="80" height="90" as="geometry"/>
                </mxCell>
                <mxCell id="17" style="edgeStyle=none;html=1;exitX=0.5;exitY=1;exitDx=0;exitDy=0;entryX=0.25;entryY=1;entryDx=0;entryDy=0;fontColor=#FFFFFF;" edge="1" parent="1" source="4" target="4">
                    <mxGeometry relative="1" as="geometry"/>
                </mxCell>
            </root>
        </mxGraphModel>
    </diagram>
</mxfile>